<svg width="88" height="88" viewBox="0 0 88 88" fill="none" xmlns="http://www.w3.org/2000/svg">
<path d="M52.2845 47.1354L51.4824 44.8021C51.3001 44.3281 50.8626 44 50.3522 44H50.0241V39.3333C50.0241 36.7812 47.9095 34.6667 45.3574 34.6667H43.0241C40.4356 34.6667 38.3574 36.7812 38.3574 39.3333V44H37.9928C37.4824 44 37.0449 44.3281 36.8991 44.8021L36.0606 47.1354C35.8053 47.901 36.3887 48.6667 37.1908 48.6667V53.0417C37.1908 53.224 37.3001 53.3333 37.4824 53.3333H38.0658C38.2116 53.3333 38.3574 53.224 38.3574 53.0417V48.6667H50.0241V53.0417C50.0241 53.224 50.1335 53.3333 50.3158 53.3333H50.8991C51.0449 53.3333 51.1908 53.224 51.1908 53.0417V48.6667C51.9928 48.6667 52.5397 47.901 52.2845 47.1354ZM46.5241 36.0521C47.8731 36.5625 48.8574 37.8385 48.8574 39.3333V44H46.5241V36.0521ZM43.0241 35.8333H45.3574V44H43.0241V35.8333ZM39.5241 39.3333C39.5241 37.8385 40.472 36.5625 41.8574 36.0521V44H39.5241V39.3333ZM37.1908 47.5L37.9928 45.1667H50.3522L51.1908 47.5H37.1908Z" fill="#5E5E5E"/>
<rect x="0.5" y="0.5" width="87" height="87" stroke="#5E5E5E" stroke-dasharray="4 4"/>
</svg>
